<svg width="40" height="40" viewBox="0 0 40 40" fill="none" xmlns="http://www.w3.org/2000/svg">
<path d="M0.670074 20.6701C1.03814 20.6701 1.33685 20.3721 1.33685 20.0033C1.33685 9.70895 9.71225 1.33356 20.0066 1.33356C24.2253 1.33356 28.26 2.74379 31.5432 5.33422H28.008C27.6399 5.33422 27.3412 5.63227 27.3412 6.001C27.3412 6.36973 27.6399 6.66778 28.008 6.66778H33.2855C33.3295 6.67178 33.3709 6.67245 33.4142 6.66778H34.0083V0.666778C34.0083 0.29805 33.7096 0 33.3415 0C32.9735 0 32.6747 0.29805 32.6747 0.666778V4.54076C29.1035 1.6056 24.6614 0 20.0066 0C8.97679 0 0.0032959 8.9735 0.0032959 20.0033C0.0032959 20.3721 0.302012 20.6701 0.670074 20.6701Z" fill="#213266"/>
<path d="M20.0066 5.33423C11.918 5.33423 5.33752 11.9147 5.33752 20.0033C5.33752 28.092 11.918 34.6724 20.0066 34.6724C28.0953 34.6724 34.6757 28.092 34.6757 20.0033C34.6757 11.9147 28.0953 5.33423 20.0066 5.33423ZM20.0066 33.3389C12.6534 33.3389 6.67108 27.3566 6.67108 20.0033C6.67108 12.6501 12.6534 6.66778 20.0066 6.66778C27.3599 6.66778 33.3422 12.6501 33.3422 20.0033C33.3422 27.3566 27.3599 33.3389 20.0066 33.3389Z" fill="#213266"/>
<path d="M20.0065 10.0013C20.3745 10.0013 20.6732 9.70326 20.6732 9.33459V8.00126C20.6732 7.63259 20.3745 7.33459 20.0065 7.33459C19.6385 7.33459 19.3398 7.63259 19.3398 8.00126V9.33459C19.3398 9.70326 19.6385 10.0013 20.0065 10.0013Z" fill="#189FE7"/>
<path d="M20.0065 30.005C19.6385 30.005 19.3398 30.303 19.3398 30.6717V32.005C19.3398 32.3737 19.6385 32.6717 20.0065 32.6717C20.3745 32.6717 20.6732 32.3737 20.6732 32.005V30.6717C20.6732 30.303 20.3745 30.005 20.0065 30.005Z" fill="#189FE7"/>
<path d="M30.675 20.6699H32.0083C32.3763 20.6699 32.675 20.3719 32.675 20.0032C32.675 19.6345 32.3763 19.3365 32.0083 19.3365H30.675C30.307 19.3365 30.0083 19.6345 30.0083 20.0032C30.0083 20.3719 30.307 20.6699 30.675 20.6699Z" fill="#189FE7"/>
<path d="M9.33789 19.3365H8.00456C7.63656 19.3365 7.33789 19.6345 7.33789 20.0032C7.33789 20.3719 7.63656 20.6699 8.00456 20.6699H9.33789C9.70589 20.6699 10.0046 20.3719 10.0046 20.0032C10.0046 19.6345 9.70589 19.3365 9.33789 19.3365Z" fill="#189FE7"/>
<path d="M20.6734 16.7642V13.3356C20.6734 12.9669 20.3747 12.6688 20.0066 12.6688C19.6386 12.6688 19.3398 12.9669 19.3398 13.3356V16.7642C18.193 17.0622 17.3395 18.0971 17.3395 19.3366C17.3395 19.83 17.4829 20.2861 17.7176 20.6828L12.2007 26.1997C11.9399 26.4605 11.9399 26.8819 12.2007 27.1426C12.3307 27.2726 12.5014 27.3379 12.6721 27.3379C12.8428 27.3379 13.0135 27.2726 13.1435 27.1426L18.6604 21.6257C19.0571 21.8604 19.5132 22.0037 20.0066 22.0037C21.4775 22.0037 22.6737 20.8075 22.6737 19.3366C22.6737 18.0971 21.8203 17.0622 20.6734 16.7642ZM20.0066 20.6702C19.2712 20.6702 18.6731 20.0721 18.6731 19.3366C18.6731 18.6011 19.2712 18.003 20.0066 18.003C20.7421 18.003 21.3402 18.6011 21.3402 19.3366C21.3402 20.0721 20.7421 20.6702 20.0066 20.6702Z" fill="#213266"/>
<path d="M7.93064 35.1125C7.71064 35.4052 7.77064 35.8252 8.07064 36.0452C8.18397 36.1318 8.32397 36.1718 8.46397 36.1718C8.67064 36.1718 8.87064 36.0852 9.00397 35.9052C9.21731 35.6125 9.15731 35.1925 8.86397 34.9725C8.57064 34.7525 8.15131 34.8125 7.93064 35.1125Z" fill="#213266"/>
<path d="M4.82395 30.8518C4.61062 30.5591 4.19062 30.4851 3.89062 30.6991C3.59062 30.9191 3.52395 31.3325 3.73729 31.6318C3.87062 31.8125 4.07062 31.9118 4.28395 31.9118C4.41729 31.9118 4.55062 31.8718 4.67062 31.7858C4.96995 31.5718 5.03729 31.1518 4.82395 30.8518Z" fill="#213266"/>
<path d="M5.08341 32.3053C4.81008 32.5513 4.78341 32.972 5.03008 33.2446C5.15675 33.398 5.34341 33.472 5.53008 33.472C5.68341 33.472 5.84341 33.4186 5.97008 33.3053C6.24341 33.0586 6.27008 32.6386 6.02341 32.3653C5.78408 32.0853 5.36408 32.0653 5.08341 32.3053Z" fill="#213266"/>
<path d="M7.37766 33.7389C7.11099 33.4922 6.68433 33.5122 6.43766 33.7796C6.18433 34.0522 6.20433 34.4729 6.47766 34.7262C6.60433 34.8396 6.76433 34.8996 6.92433 34.8996C7.10433 34.8996 7.28433 34.8262 7.41766 34.6862C7.66433 34.4129 7.65099 33.9929 7.37766 33.7462C7.37766 33.7389 7.37766 33.7389 7.37766 33.7389Z" fill="#213266"/>
<path d="M3.78372 29.2315C3.77705 29.2315 3.77705 29.2315 3.77705 29.2315C3.59705 28.9115 3.19038 28.7981 2.87038 28.9848C2.55038 29.1655 2.43705 29.5715 2.62372 29.8915C2.74372 30.1041 2.97038 30.2248 3.20372 30.2248C3.31038 30.2248 3.43038 30.1981 3.53038 30.1381C3.85038 29.9581 3.96372 29.5508 3.78372 29.2315Z" fill="#213266"/>
<path d="M39.303 21.4167C39.3164 21.4167 39.323 21.4167 39.3297 21.4167C39.6897 21.4167 39.983 21.1294 39.9964 20.7767C40.0097 20.4027 39.723 20.096 39.3564 20.0834C38.9897 20.0694 38.6764 20.3567 38.663 20.7234C38.6497 21.09 38.9357 21.4034 39.303 21.4167Z" fill="#213266"/>
<path d="M0.843263 22.6636C1.20993 22.6229 1.4766 22.2962 1.4366 21.9296C1.3966 21.5629 1.06993 21.2962 0.703263 21.3362C0.336596 21.3696 0.0699294 21.7029 0.109929 22.0629C0.143263 22.4096 0.436596 22.6629 0.769929 22.6629C0.796596 22.6636 0.816596 22.6636 0.843263 22.6636Z" fill="#213266"/>
<path d="M1.2167 24.6239C1.5767 24.5505 1.81004 24.1972 1.73004 23.8372C1.6567 23.4772 1.30337 23.2432 0.943371 23.3232C0.583371 23.3965 0.350038 23.7505 0.430038 24.1105C0.490038 24.4239 0.770038 24.6372 1.0767 24.6372C1.1227 24.6372 1.17004 24.6372 1.2167 24.6239Z" fill="#213266"/>
<path d="M2.91019 27.5046C2.76353 27.1712 2.37019 27.0179 2.03019 27.1646C1.69686 27.3112 1.54353 27.7046 1.69019 28.0439C1.80353 28.2906 2.04353 28.4446 2.30353 28.4446C2.39019 28.4446 2.48353 28.4246 2.57019 28.3839C2.90286 28.2379 3.05619 27.8446 2.91019 27.5046Z" fill="#213266"/>
<path d="M2.22278 25.7043C2.11611 25.3509 1.73611 25.1576 1.38945 25.2709C1.03611 25.3843 0.842779 25.7576 0.956112 26.1116C1.04945 26.3916 1.30945 26.5709 1.58945 26.5709C1.65611 26.5709 1.72945 26.5643 1.79611 26.5443C2.14345 26.4309 2.33678 26.0503 2.22278 25.7043Z" fill="#213266"/>
<path d="M19.6464 38.6664C19.2798 38.6591 18.9731 38.9531 18.9664 39.3191C18.9598 39.6931 19.2531 39.9924 19.6198 39.9997C19.6264 39.9997 19.6331 39.9997 19.6331 39.9997C19.9998 39.9997 20.2931 39.7124 20.2998 39.3464C20.3058 38.9797 20.0131 38.6731 19.6464 38.6664Z" fill="#213266"/>
<path d="M34.7623 31.4319C34.5357 31.7185 34.589 32.1392 34.8757 32.3652C35.0023 32.4585 35.1423 32.5052 35.289 32.5052C35.4823 32.5052 35.6823 32.4185 35.8157 32.2445C36.0423 31.9579 35.989 31.5379 35.6957 31.3119C35.4023 31.0859 34.989 31.1385 34.7623 31.4319Z" fill="#213266"/>
<path d="M30.561 35.3925C30.261 35.5992 30.181 36.0185 30.3943 36.3192C30.521 36.5058 30.7277 36.6058 30.941 36.6058C31.0743 36.6058 31.201 36.5725 31.321 36.4925C31.621 36.2858 31.701 35.8665 31.4877 35.5658C31.281 35.2592 30.8683 35.1858 30.561 35.3925Z" fill="#213266"/>
<path d="M32.0953 34.2183C31.8153 34.4583 31.782 34.8783 32.022 35.1583C32.1553 35.3116 32.342 35.3923 32.5286 35.3923C32.682 35.3923 32.8353 35.339 32.962 35.2323C33.242 34.9923 33.2753 34.5723 33.0353 34.2923C32.7946 34.0123 32.3753 33.979 32.0953 34.2183Z" fill="#213266"/>
<path d="M36.7819 29.6309C36.4685 29.4376 36.0552 29.5376 35.8619 29.8442C35.6685 30.1576 35.7619 30.5709 36.0752 30.7642C36.1885 30.8316 36.3085 30.8642 36.4285 30.8642C36.6485 30.8642 36.8685 30.7576 36.9952 30.5502C37.1892 30.2382 37.0959 29.8242 36.7819 29.6309Z" fill="#213266"/>
<path d="M33.5021 32.8921C33.2422 33.1581 33.2555 33.5781 33.5222 33.8321C33.6488 33.9581 33.8155 34.0181 33.9822 34.0181C34.1555 34.0181 34.3355 33.9515 34.4622 33.8115C34.7155 33.5448 34.7088 33.1248 34.4421 32.8715C34.1755 32.6181 33.7548 32.6255 33.5021 32.8921Z" fill="#213266"/>
<path d="M39.2424 22.0764C38.8824 22.0237 38.5424 22.2837 38.489 22.6437C38.4357 23.0104 38.689 23.3437 39.0557 23.397C39.089 23.4037 39.1224 23.4037 39.149 23.4037C39.4757 23.4037 39.7624 23.1644 39.809 22.831C39.863 22.4704 39.6097 22.1297 39.2424 22.0764Z" fill="#213266"/>
<path d="M38.9296 24.05C38.5696 23.9634 38.2096 24.1834 38.1163 24.5367C38.0296 24.8967 38.2496 25.2567 38.603 25.35C38.6563 25.364 38.7096 25.37 38.763 25.37C39.063 25.37 39.3363 25.1634 39.4096 24.8634C39.503 24.504 39.2823 24.144 38.9296 24.05Z" fill="#213266"/>
<path d="M10.4709 36.046C10.1509 35.86 9.74419 35.9594 9.55752 36.28C9.36419 36.5934 9.47086 37.0067 9.78419 37.1934C9.89086 37.26 10.0109 37.2867 10.1242 37.2867C10.3509 37.2867 10.5709 37.1734 10.6975 36.96C10.8909 36.646 10.7849 36.2394 10.4709 36.046Z" fill="#213266"/>
<path d="M38.4089 25.9843C38.0622 25.8583 37.6756 26.0376 37.5556 26.3843C37.4289 26.7316 37.6022 27.1116 37.9489 27.2376C38.0222 27.2643 38.1022 27.2783 38.1756 27.2783C38.4489 27.2783 38.7089 27.1116 38.8022 26.8383C38.9296 26.4903 38.7556 26.1109 38.4089 25.9843Z" fill="#213266"/>
<path d="M37.6894 27.8512C37.3627 27.6919 36.9561 27.8246 36.7961 28.1579C36.6361 28.4912 36.7761 28.8919 37.1027 29.0512C37.1961 29.0979 37.2961 29.1186 37.3961 29.1186C37.6427 29.1186 37.8827 28.9786 37.9961 28.7446C38.1561 28.4106 38.0227 28.0112 37.6894 27.8512Z" fill="#213266"/>
<path d="M17.7194 38.5331C17.3528 38.4865 17.0261 38.7458 16.9794 39.1131C16.9328 39.4798 17.1927 39.8131 17.5594 39.8525V39.8598C17.5861 39.8598 17.6127 39.8598 17.6394 39.8598C17.9728 39.8598 18.2594 39.6131 18.2994 39.2725C18.3461 38.9065 18.0854 38.5791 17.7194 38.5331Z" fill="#213266"/>
<path d="M13.9655 37.673C13.6188 37.5523 13.2388 37.733 13.1188 38.0863C12.9988 38.433 13.1855 38.813 13.5321 38.933C13.6055 38.953 13.6788 38.9663 13.7521 38.9663C14.0255 38.9663 14.2855 38.793 14.3788 38.5196C14.4988 38.1663 14.3121 37.7863 13.9655 37.673Z" fill="#213266"/>
<path d="M15.8191 38.1998C15.4591 38.1198 15.1058 38.3398 15.0191 38.6998C14.9391 39.0598 15.1658 39.4198 15.5191 39.4998C15.5725 39.5131 15.6191 39.5131 15.6725 39.5131C15.9725 39.5131 16.2525 39.3064 16.3191 38.9998C16.4051 38.6398 16.1791 38.2798 15.8191 38.1998Z" fill="#213266"/>
<path d="M12.1786 36.9529C11.8386 36.7929 11.4452 36.9389 11.2919 37.2722C11.1386 37.6055 11.2786 38.0062 11.6119 38.1589C11.7052 38.1995 11.7986 38.2189 11.8919 38.2189C12.1452 38.2189 12.3852 38.0789 12.4986 37.8329C12.6519 37.4995 12.5119 37.1055 12.1786 36.9529Z" fill="#213266"/>
<path d="M23.4871 38.3464C23.1271 38.4131 22.8871 38.7664 22.9537 39.1264C23.0137 39.4464 23.3004 39.6671 23.6138 39.6671C23.6538 39.6671 23.6938 39.6671 23.7338 39.6598C24.0938 39.5871 24.3338 39.2398 24.2671 38.8798C24.2004 38.5131 23.8471 38.2798 23.4871 38.3464Z" fill="#213266"/>
<path d="M25.3607 37.893C25.0074 37.9923 24.8074 38.3663 24.9141 38.719C25.0007 39.0063 25.2674 39.193 25.5541 39.193C25.6141 39.193 25.6807 39.1857 25.7474 39.1663C26.1007 39.0597 26.3007 38.6857 26.1941 38.333C26.0867 37.9863 25.7141 37.7863 25.3607 37.893Z" fill="#213266"/>
<path d="M27.181 37.2395C26.841 37.3795 26.681 37.7728 26.821 38.1135C26.9277 38.3668 27.1744 38.5195 27.4344 38.5195C27.521 38.5195 27.6077 38.5062 27.6944 38.4735C28.0344 38.3262 28.1944 37.9395 28.0544 37.5995C27.907 37.2595 27.521 37.0995 27.181 37.2395Z" fill="#213266"/>
<path d="M21.5728 38.6058C21.2061 38.6398 20.9328 38.9591 20.9661 39.3258C20.9928 39.6731 21.2861 39.9391 21.6328 39.9391C21.6461 39.9391 21.6661 39.9391 21.6861 39.9391V39.9325C22.0528 39.9058 22.3261 39.5858 22.2928 39.2191C22.2661 38.8531 21.9401 38.5791 21.5728 38.6058Z" fill="#213266"/>
<path d="M28.9207 36.4061C28.594 36.5794 28.474 36.9861 28.654 37.3068C28.774 37.5334 29.0007 37.6594 29.2407 37.6594C29.3474 37.6594 29.454 37.6328 29.554 37.5728C29.8807 37.3994 30.0007 36.9928 29.8207 36.6728C29.648 36.3461 29.2407 36.2261 28.9207 36.4061Z" fill="#213266"/>
</svg>
