<svg width="40" height="40" viewBox="0 0 40 40" fill="none" xmlns="http://www.w3.org/2000/svg">
<path d="M38.125 10.625H33.125C32.7794 10.625 32.5 10.905 32.5 11.25V13.125H26.25V11.25C26.25 10.905 25.9706 10.625 25.625 10.625H23.75V7.5H25.625C25.9706 7.5 26.25 7.22 26.25 6.875V1.875C26.25 1.53 25.9706 1.25 25.625 1.25H20.625C20.2794 1.25 20 1.53 20 1.875V6.875C20 7.22 20.2794 7.5 20.625 7.5H22.5V10.625H20.625C20.2794 10.625 20 10.905 20 11.25V16.25C20 16.595 20.2794 16.875 20.625 16.875H22.5V17.6744L13.75 20.5912L5 17.6744V16.875H6.875C7.22062 16.875 7.5 16.595 7.5 16.25V11.25C7.5 10.905 7.22062 10.625 6.875 10.625H1.875C1.52938 10.625 1.25 10.905 1.25 11.25V16.25C1.25 16.595 1.52938 16.875 1.875 16.875H3.75V18.125C3.75 18.3944 3.92188 18.6325 4.1775 18.7181L13.125 21.7006V23.125H11.25C10.9044 23.125 10.625 23.405 10.625 23.75V28.75C10.625 29.095 10.9044 29.375 11.25 29.375H13.125V32.5H11.25C10.9044 32.5 10.625 32.78 10.625 33.125V38.125C10.625 38.47 10.9044 38.75 11.25 38.75H16.25C16.5956 38.75 16.875 38.47 16.875 38.125V33.125C16.875 32.78 16.5956 32.5 16.25 32.5H14.375V29.375H16.25C16.5956 29.375 16.875 29.095 16.875 28.75V23.75C16.875 23.405 16.5956 23.125 16.25 23.125H14.375V21.7006L23.3225 18.7181C23.5775 18.6331 23.75 18.3944 23.75 18.125V16.875H25.625C25.9706 16.875 26.25 16.595 26.25 16.25V14.375H32.5V16.25C32.5 16.595 32.7794 16.875 33.125 16.875H35V23.125H33.125C32.7794 23.125 32.5 23.405 32.5 23.75V28.75C32.5 29.095 32.7794 29.375 33.125 29.375H38.125C38.4706 29.375 38.75 29.095 38.75 28.75V23.75C38.75 23.405 38.4706 23.125 38.125 23.125H36.25V16.875H38.125C38.4706 16.875 38.75 16.595 38.75 16.25V11.25C38.75 10.905 38.4706 10.625 38.125 10.625ZM21.25 2.5H25V6.25H21.25V2.5ZM2.5 11.875H6.25V15.625H2.5V11.875ZM15.625 37.5H11.875V33.75H15.625V37.5ZM15.625 28.125H11.875V24.375H15.625V28.125ZM25 15.625H21.25V11.875H25V15.625ZM37.5 28.125H33.75V24.375H37.5V28.125ZM37.5 15.625H33.75V11.875H37.5V15.625Z" fill="#213266"/>
</svg>
