<svg width="40" height="40" viewBox="0 0 40 40" fill="none" xmlns="http://www.w3.org/2000/svg">
<path d="M39.3333 37V11H31.3333V37H29.3333V16.3333H21.3333V37H19.3333V21.6667H11.3333V37H9.33333V27.6667H1.33333V37H0.666667C0.298667 37 0 37.298 0 37.6667C0 38.0353 0.298667 38.3333 0.666667 38.3333H1.33333H9.33333H11.3333H19.3333H21.3333H29.3333H31.3333H39.3333C39.7013 38.3333 40 38.0353 40 37.6667C40 37.298 39.7013 37 39.3333 37ZM2.66667 37V29H8V37H2.66667ZM12.6667 37V23H18V37H12.6667ZM22.6667 37V17.6667H28V37H22.6667ZM32.6667 37V12.3333H38V37H32.6667Z" fill="#213266"/>
<path d="M5.35334 18.5533C5.46601 18.5533 5.58134 18.5246 5.68601 18.4639L29.8653 4.50395L28.352 7.83061C28.1993 8.16595 28.3473 8.56128 28.6827 8.71328C28.772 8.75461 28.866 8.77328 28.9587 8.77328C29.212 8.77328 29.454 8.62795 29.566 8.38261L31.9407 3.16261C31.948 3.14595 31.9467 3.12795 31.9527 3.11061C31.9653 3.07528 31.9753 3.04128 31.982 3.00395C31.9853 2.98528 31.996 2.96995 31.9973 2.95061C31.998 2.94261 31.9947 2.93595 31.9953 2.92795C31.9967 2.90261 31.994 2.87928 31.9927 2.85395C31.9907 2.81728 31.9847 2.78261 31.9767 2.74595C31.9713 2.72061 31.97 2.69461 31.9613 2.66995C31.9533 2.64595 31.9393 2.62595 31.9287 2.60261C31.92 2.58728 31.92 2.56928 31.9107 2.55328C31.9013 2.53728 31.8853 2.52795 31.8747 2.51261C31.8607 2.49195 31.85 2.46995 31.8333 2.45128C31.816 2.43128 31.794 2.41728 31.774 2.39928C31.7467 2.37461 31.7193 2.35195 31.6887 2.33195C31.668 2.31861 31.6493 2.30395 31.6267 2.29261C31.6193 2.28928 31.6153 2.28261 31.608 2.27928C31.5913 2.27195 31.5733 2.27328 31.5567 2.26728C31.52 2.25395 31.484 2.24461 31.446 2.23795C31.4287 2.23461 31.4147 2.22461 31.3967 2.22328L25.6887 1.66995C25.3187 1.63261 24.996 1.90328 24.9607 2.26861C24.9247 2.63528 25.1933 2.96128 25.5593 2.99661L29.1967 3.34928L5.01934 17.3093C4.70001 17.4933 4.59134 17.9013 4.77534 18.2199C4.89868 18.4339 5.12268 18.5533 5.35334 18.5533Z" fill="#189FE7"/>
</svg>
