<svg width="40" height="40" viewBox="0 0 40 40" fill="none" xmlns="http://www.w3.org/2000/svg">
<path d="M15 20C15 22.7569 17.2431 25 20 25C22.7569 25 25 22.7569 25 20C25 17.2431 22.7569 15 20 15C17.2431 15 15 17.2431 15 20ZM23.75 20C23.75 22.0681 22.0681 23.75 20 23.75C17.9319 23.75 16.25 22.0681 16.25 20C16.25 17.9319 17.9319 16.25 20 16.25C22.0681 16.25 23.75 17.9319 23.75 20Z" fill="#189FE7"/>
<path d="M35.625 16.875C34.1162 16.875 32.8538 17.9506 32.5631 19.375H29.375V15.625C29.375 15.4012 29.255 15.1938 29.06 15.0825L26.9863 13.8975L31.4044 9.47937C31.8988 9.80688 32.4894 10 33.125 10C34.8481 10 36.25 8.59812 36.25 6.875C36.25 5.15188 34.8481 3.75 33.125 3.75C31.4019 3.75 30 5.15188 30 6.875C30 7.51062 30.1931 8.10125 30.5206 8.59562L25.8612 13.255L20.625 10.2625V7.43688C22.0494 7.14625 23.125 5.88438 23.125 4.375C23.125 2.65188 21.7231 1.25 20 1.25C18.2769 1.25 16.875 2.65188 16.875 4.375C16.875 5.88375 17.9506 7.14625 19.375 7.43688V10.2625L14.1388 13.255L9.47937 8.59562C9.80688 8.10125 10 7.51062 10 6.875C10 5.15188 8.59812 3.75 6.875 3.75C5.15188 3.75 3.75 5.15188 3.75 6.875C3.75 8.59812 5.15188 10 6.875 10C7.51062 10 8.10125 9.80688 8.59562 9.47937L13.0138 13.8975L10.94 15.0825C10.745 15.1938 10.625 15.4012 10.625 15.625V19.375H7.43688C7.14625 17.9506 5.88375 16.875 4.375 16.875C2.65188 16.875 1.25 18.2769 1.25 20C1.25 21.7231 2.65188 23.125 4.375 23.125C5.88375 23.125 7.14625 22.0494 7.43688 20.625H10.625V24.375C10.625 24.5987 10.745 24.8062 10.94 24.9175L13.0138 26.1025L8.59562 30.5206C8.10125 30.1931 7.51062 30 6.875 30C5.15188 30 3.75 31.4019 3.75 33.125C3.75 34.8481 5.15188 36.25 6.875 36.25C8.59812 36.25 10 34.8481 10 33.125C10 32.4894 9.80688 31.8988 9.47937 31.4044L14.1388 26.745L19.375 29.7375V32.5631C17.9506 32.8538 16.875 34.1156 16.875 35.625C16.875 37.3481 18.2769 38.75 20 38.75C21.7231 38.75 23.125 37.3481 23.125 35.625C23.125 34.1162 22.0494 32.8538 20.625 32.5631V29.7375L25.8612 26.745L30.5206 31.4044C30.1931 31.8988 30 32.4894 30 33.125C30 34.8481 31.4019 36.25 33.125 36.25C34.8481 36.25 36.25 34.8481 36.25 33.125C36.25 31.4019 34.8481 30 33.125 30C32.4894 30 31.8988 30.1931 31.4044 30.5206L26.9863 26.1025L29.06 24.9175C29.255 24.8062 29.375 24.5987 29.375 24.375V20.625H32.5631C32.8538 22.0494 34.1156 23.125 35.625 23.125C37.3481 23.125 38.75 21.7231 38.75 20C38.75 18.2769 37.3481 16.875 35.625 16.875ZM33.125 5C34.1587 5 35 5.84125 35 6.875C35 7.90875 34.1587 8.75 33.125 8.75C32.0912 8.75 31.25 7.90875 31.25 6.875C31.25 5.84125 32.0912 5 33.125 5ZM6.875 8.75C5.84125 8.75 5 7.90875 5 6.875C5 5.84125 5.84125 5 6.875 5C7.90875 5 8.75 5.84125 8.75 6.875C8.75 7.90875 7.90875 8.75 6.875 8.75ZM4.375 21.875C3.34125 21.875 2.5 21.0338 2.5 20C2.5 18.9662 3.34125 18.125 4.375 18.125C5.40875 18.125 6.25 18.9662 6.25 20C6.25 21.0338 5.40875 21.875 4.375 21.875ZM6.875 35C5.84125 35 5 34.1587 5 33.125C5 32.0912 5.84125 31.25 6.875 31.25C7.90875 31.25 8.75 32.0912 8.75 33.125C8.75 34.1587 7.90875 35 6.875 35ZM33.125 31.25C34.1587 31.25 35 32.0912 35 33.125C35 34.1587 34.1587 35 33.125 35C32.0912 35 31.25 34.1587 31.25 33.125C31.25 32.0912 32.0912 31.25 33.125 31.25ZM18.125 4.375C18.125 3.34125 18.9662 2.5 20 2.5C21.0338 2.5 21.875 3.34125 21.875 4.375C21.875 5.40875 21.0338 6.25 20 6.25C18.9662 6.25 18.125 5.40875 18.125 4.375ZM21.875 35.625C21.875 36.6587 21.0338 37.5 20 37.5C18.9662 37.5 18.125 36.6587 18.125 35.625C18.125 34.5913 18.9662 33.75 20 33.75C21.0338 33.75 21.875 34.5913 21.875 35.625ZM28.125 24.0125L20 28.6556L11.875 24.0125V15.9875L20 11.3444L28.125 15.9875V24.0125ZM35.625 21.875C34.5913 21.875 33.75 21.0338 33.75 20C33.75 18.9662 34.5913 18.125 35.625 18.125C36.6587 18.125 37.5 18.9662 37.5 20C37.5 21.0338 36.6587 21.875 35.625 21.875Z" fill="#213266"/>
</svg>
