<svg width="270" height="270" viewBox="0 0 270 270" fill="none" xmlns="http://www.w3.org/2000/svg">
<g filter="url(#filter0_d_74:2190)">
<path d="M184.413 49.4134L233.827 135L184.413 220.587L85.5866 220.587L36.1732 135L85.5866 49.4134L184.413 49.4134Z" fill="url(#paint0_linear_74:2190)"/>
</g>
<path d="M143.357 185.684H150.375V192.214H156.911V185.072H163.929V178.786H157.152L157.071 171.643H150.295L150.214 178.786H143.357V185.684Z" fill="white"/>
<path d="M166.5 162.403H171.761V166.5H176.668V162.037H181.929V158.106H176.864L176.786 153.643H171.721L171.643 158.106H166.5V162.403Z" fill="white"/>
<path d="M163.929 105.844H167.447V109.929H170.696V105.457H174.214V101.544H170.831L170.763 97.0723H167.38L167.346 101.544H163.929V105.844Z" fill="white"/>
<path d="M174.214 131.575H178.607V135.643H182.679V131.175H187.071V127.253H182.822L182.786 122.786H178.536L178.5 127.253H174.214V131.575Z" fill="white"/>
<path d="M148.5 89.4741H151.148V91.9286H153.566V89.2403H156.214V86.9027H153.681L153.643 84.2144H151.11L151.071 86.9027H148.5V89.4741Z" fill="white"/>
<path d="M127.929 84.3378H130.561V86.7861H133.011V84.1069H135.643V81.751H133.102L133.056 79.0718H130.515V81.751H127.929V84.3378Z" fill="white"/>
<path d="M109.929 82.565H111.707V84.2146H113.293V82.4195H115.071V80.8669H113.389L113.341 79.0718H111.659V80.8669H109.929V82.565Z" fill="white"/>
<path d="M141.426 132.717C139.964 129.426 137.837 126.471 135.181 124.039L132.989 122.027C132.914 121.961 132.825 121.914 132.728 121.89C132.631 121.866 132.529 121.867 132.433 121.891C132.336 121.916 132.247 121.964 132.173 122.031C132.099 122.098 132.043 122.182 132.009 122.276L131.03 125.086C130.42 126.849 129.297 128.649 127.708 130.42C127.602 130.533 127.482 130.563 127.399 130.57C127.316 130.578 127.188 130.563 127.075 130.457C126.969 130.367 126.917 130.231 126.924 130.096C127.203 125.561 125.847 120.445 122.879 114.878C120.423 110.252 117.01 106.644 112.746 104.128L109.635 102.297C109.228 102.056 108.708 102.372 108.731 102.847L108.896 106.463C109.009 108.934 108.723 111.119 108.045 112.934C107.216 115.157 106.026 117.221 104.504 119.074C103.445 120.362 102.245 121.527 100.926 122.547C97.7492 124.989 95.166 128.118 93.3699 131.7C91.5783 135.313 90.645 139.292 90.6428 143.324C90.6428 146.88 91.3434 150.323 92.7296 153.57C94.068 156.696 95.9996 159.533 98.4174 161.925C100.858 164.335 103.691 166.234 106.847 167.552C110.117 168.923 113.582 169.616 117.161 169.616C120.739 169.616 124.204 168.923 127.474 167.56C130.623 166.249 133.486 164.338 135.904 161.932C138.345 159.521 140.258 156.704 141.592 153.578C142.976 150.34 143.686 146.853 143.679 143.332C143.679 139.656 142.925 136.085 141.426 132.717ZM132.303 158.278C128.258 162.286 122.886 164.486 117.161 164.486C111.435 164.486 106.064 162.286 102.018 158.278C97.988 154.278 95.7656 148.975 95.7656 143.332C95.7656 140.055 96.5039 136.913 97.9578 133.991C99.3741 131.135 101.484 128.581 104.045 126.615C105.678 125.366 107.16 123.93 108.46 122.336C110.343 120.038 111.819 117.477 112.844 114.727C113.264 113.593 113.57 112.42 113.756 111.224C115.571 112.897 117.093 114.916 118.366 117.281C120.882 121.997 122.042 126.193 121.816 129.764C121.762 130.605 121.9 131.448 122.218 132.228C122.536 133.008 123.028 133.706 123.655 134.269C124.198 134.76 124.833 135.138 125.524 135.381C126.214 135.624 126.946 135.728 127.677 135.686C129.162 135.61 130.525 134.955 131.52 133.847C132.521 132.725 133.388 131.58 134.111 130.412C135.166 131.761 136.047 133.23 136.748 134.812C137.946 137.509 138.556 140.379 138.556 143.332C138.556 148.975 136.333 154.286 132.303 158.278Z" fill="white"/>
<defs>
<filter id="filter0_d_74:2190" x="26.2905" y="43.484" width="217.419" height="190.938" filterUnits="userSpaceOnUse" color-interpolation-filters="sRGB">
<feFlood flood-opacity="0" result="BackgroundImageFix"/>
<feColorMatrix in="SourceAlpha" type="matrix" values="0 0 0 0 0 0 0 0 0 0 0 0 0 0 0 0 0 0 127 0" result="hardAlpha"/>
<feOffset dy="3.95307"/>
<feGaussianBlur stdDeviation="4.94134"/>
<feComposite in2="hardAlpha" operator="out"/>
<feColorMatrix type="matrix" values="0 0 0 0 0 0 0 0 0 0 0 0 0 0 0 0 0 0 0.15 0"/>
<feBlend mode="normal" in2="BackgroundImageFix" result="effect1_dropShadow_74:2190"/>
<feBlend mode="normal" in="SourceGraphic" in2="effect1_dropShadow_74:2190" result="shape"/>
</filter>
<linearGradient id="paint0_linear_74:2190" x1="103.3" y1="13.9941" x2="160.215" y2="253.403" gradientUnits="userSpaceOnUse">
<stop offset="0.0615138" stop-color="#FF8049"/>
<stop offset="1" stop-color="#FF273E"/>
</linearGradient>
</defs>
</svg>
