<svg width="296" height="296" viewBox="0 0 296 296" fill="none" xmlns="http://www.w3.org/2000/svg">
<g filter="url(#filter0_d_74:2153)">
<path d="M202.172 54.1718L256.343 148L202.172 241.828L93.8282 241.828L39.6565 148L93.8282 54.1718L202.172 54.1718Z" fill="url(#paint0_linear_74:2153)"/>
</g>
<g clip-path="url(#clip0_74:2153)">
<path d="M127.433 115.208L127.432 115.208C126.393 116.137 126.303 117.732 127.232 118.772C127.232 118.772 127.232 118.772 127.232 118.772L131.151 123.159L129.114 123.159C110.809 123.159 95.9173 138.051 95.9173 156.356C95.9173 174.661 110.809 189.552 129.114 189.552C147.444 189.552 161.277 174.636 161.277 156.356C161.277 156.229 161.279 156.105 161.282 155.979L161.282 155.978L161.282 155.977C161.284 155.853 161.287 155.724 161.286 155.6C161.285 155.36 161.273 155.089 161.208 154.839C161.139 154.577 161.002 154.298 160.725 154.097C160.455 153.9 160.128 153.832 159.787 153.832C159.451 153.832 159.114 153.898 158.847 154.117C158.571 154.343 158.47 154.648 158.432 154.902C158.397 155.146 158.409 155.412 158.423 155.639C158.426 155.687 158.429 155.735 158.432 155.782C158.445 155.975 158.457 156.16 158.457 156.356C158.457 171.846 144.666 184.504 129.114 184.504C113.593 184.504 100.965 171.876 100.965 156.356C100.965 140.835 113.593 128.207 129.114 128.207L131.151 128.207L127.232 132.594C127.232 132.594 127.232 132.594 127.232 132.594C126.303 133.634 126.393 135.229 127.432 136.158C128.472 137.087 130.068 136.997 130.996 135.957L130.556 135.564L130.996 135.957L137.854 128.28L137.414 127.887L137.854 128.28C139.177 126.8 139.177 124.566 137.854 123.086L130.996 115.409C130.497 114.85 129.806 114.566 129.113 114.566C128.515 114.566 127.914 114.778 127.433 115.208Z" fill="white" stroke="white" stroke-width="1.17984"/>
<path d="M115.317 159.439C115.317 158.352 114.435 157.471 113.349 157.471C112.262 157.471 111.38 158.352 111.38 159.439L115.317 159.439ZM111.38 166.328L111.38 168.296L115.317 168.296L115.317 166.328L111.38 166.328ZM111.38 159.439L111.38 166.328L115.317 166.328L115.317 159.439L111.38 159.439Z" fill="white"/>
<path d="M123.189 154.519C123.189 153.432 122.308 152.551 121.221 152.551C120.134 152.551 119.253 153.432 119.253 154.519L123.189 154.519ZM119.253 166.328L119.253 168.296L123.189 168.296L123.189 166.328L119.253 166.328ZM119.253 154.519L119.253 166.328L123.189 166.328L123.189 154.519L119.253 154.519Z" fill="white"/>
<path d="M131.062 151.567C131.062 150.48 130.181 149.599 129.094 149.599C128.007 149.599 127.126 150.48 127.126 151.567L131.062 151.567ZM127.126 166.328L127.126 168.296L131.062 168.296L131.062 166.328L127.126 166.328ZM127.126 151.567L127.126 166.328L131.062 166.328L131.062 151.567L127.126 151.567Z" fill="white"/>
<path d="M138.935 148.615C138.935 147.528 138.054 146.647 136.967 146.647C135.88 146.647 134.998 147.528 134.998 148.615L138.935 148.615ZM134.998 166.328L134.998 168.296L138.935 168.296L138.935 166.328L134.998 166.328ZM134.998 148.615L134.998 166.328L138.935 166.328L138.935 148.615L134.998 148.615Z" fill="white"/>
<path d="M146.807 144.678C146.807 143.591 145.926 142.71 144.839 142.71C143.752 142.71 142.871 143.591 142.871 144.678H146.807ZM142.871 166.328V168.296H146.807V166.328H142.871ZM142.871 144.678V166.328H146.807V144.678H142.871Z" fill="white"/>
</g>
<path d="M152.933 203.565H160.627V210.724H167.792V202.894H175.486V196.003H168.056L167.968 188.172H160.539L160.451 196.003H152.933V203.565Z" fill="white"/>
<path d="M178.305 178.042H184.072V182.533H189.452V177.64H195.219V173.331H189.667L189.581 168.438H184.029L183.943 173.331H178.305V178.042Z" fill="white"/>
<path d="M175.486 116.037H179.343V120.515H182.904V115.612H186.762V111.323H183.053L182.978 106.42H179.269L179.232 111.323H175.486V116.037Z" fill="white"/>
<path d="M186.762 144.245H191.578V148.705H196.041V143.807H200.857V139.507H196.198L196.159 134.609H191.5L191.46 139.507H186.762V144.245Z" fill="white"/>
<path d="M158.571 98.09H161.475V100.781H164.125V97.8337H167.029V95.2709H164.252L164.21 92.3237H161.433L161.39 95.2709H158.571V98.09Z" fill="white"/>
<path d="M136.019 92.4592H138.905V95.1432H141.591V92.206H144.476V89.6232H141.69L141.641 86.686H138.855V89.6232H136.019V92.4592Z" fill="white"/>
<path d="M116.286 90.5157H118.235V92.3241H119.974V90.3561H121.924V88.654H120.08L120.027 86.686H118.183V88.654H116.286V90.5157Z" fill="white"/>
<defs>
<filter id="filter0_d_74:2153" x="28.8221" y="47.6713" width="238.356" height="209.325" filterUnits="userSpaceOnUse" color-interpolation-filters="sRGB">
<feFlood flood-opacity="0" result="BackgroundImageFix"/>
<feColorMatrix in="SourceAlpha" type="matrix" values="0 0 0 0 0 0 0 0 0 0 0 0 0 0 0 0 0 0 127 0" result="hardAlpha"/>
<feOffset dy="4.33374"/>
<feGaussianBlur stdDeviation="5.41718"/>
<feComposite in2="hardAlpha" operator="out"/>
<feColorMatrix type="matrix" values="0 0 0 0 0 0 0 0 0 0 0 0 0 0 0 0 0 0 0.15 0"/>
<feBlend mode="normal" in2="BackgroundImageFix" result="effect1_dropShadow_74:2153"/>
<feBlend mode="normal" in="SourceGraphic" in2="effect1_dropShadow_74:2153" result="shape"/>
</filter>
<linearGradient id="paint0_linear_74:2153" x1="113.247" y1="15.3417" x2="175.643" y2="277.805" gradientUnits="userSpaceOnUse">
<stop offset="0.0615138" stop-color="#FF8049"/>
<stop offset="1" stop-color="#FF273E"/>
</linearGradient>
<clipPath id="clip0_74:2153">
<rect width="66.9176" height="76.7585" fill="white" transform="translate(95.1429 114.172)"/>
</clipPath>
</defs>
</svg>
